<svg xmlns="http://www.w3.org/2000/svg" viewBox="0 0 64 64"><g id="HOUSE-31" data-name="HOUSE"><path d="M63,51H60.12V41a1,1,0,1,0-1.94,0v2H52.36V36a1,1,0,0,0-1-1H48.48V23h2.91a1,1,0,0,0,1-1c-.07-.51.18-1.41-.34-1.76l-19.39-17a1,1,0,0,0-1.26,0L12,20.24c-.5.35-.3,1.25-.34,1.76,0,1.43,2,.91,2.91,1V35c-.86.09-2.93-.43-2.91,1v7H5.82V41a1,1,0,1,0-1.94,0V51H1a1,1,0,0,0,0,2H63A1,1,0,0,0,63,51ZM32,5.31,49.9,21H14.1ZM28.85,29.75h5.33v1.5H28.85Zm5.33-1.5H28.85v-1.5h5.33Zm-5.33,4.5h5.33v2.5H28.85Zm5.33-7.5H28.85V23h5.33ZM27.39,23V36a.74.74,0,0,0,.73.75h6.79a.74.74,0,0,0,.73-.75V23H46.55V39H16.48V23ZM25.48,41V51H20.36V41Zm1.94,0H37.59V51H27.42Zm12.1,0h4.12V51H39.52ZM5.82,45h6.79a1,1,0,0,0,1-1V37h1c0,4.38-.63,4,3.87,4V51H5.82Zm39.76,6V41h1.94a1,1,0,0,0,1-1V37h1.94v7a1,1,0,0,0,1,1h6.79v6Z" id="id_101" style="fill: rgb(255, 13, 5);"></path><path d="M19.39,35.75h3.88A.74.74,0,0,0,24,35V28a.74.74,0,0,0-.73-.75H19.39a.74.74,0,0,0-.72.75v7A.74.74,0,0,0,19.39,35.75Zm.73-7h2.43v5.5H20.12Z" id="id_102" style="fill: rgb(255, 13, 5);"></path><path d="M39.76,35.75h3.88a.74.74,0,0,0,.72-.75V28a.74.74,0,0,0-.72-.75H39.76A.74.74,0,0,0,39,28v7A.74.74,0,0,0,39.76,35.75Zm.72-7h2.43v5.5H40.48Z" id="id_103" style="fill: rgb(255, 13, 5);"></path></g></svg>